<svg width="487" height="549" viewBox="0 0 487 549" fill="none" xmlns="http://www.w3.org/2000/svg">
<path d="M432.078 504.27C383.835 529.69 328.763 539.915 274.371 533.55C219.98 527.186 168.915 504.542 128.141 468.706C87.3663 432.87 58.866 385.585 46.5261 333.3C34.1862 281.015 38.6071 226.274 59.1861 176.541L61.6724 177.528C41.3007 226.76 36.9243 280.95 49.1399 332.708C61.3555 384.467 89.5686 431.274 129.932 466.749C170.296 502.225 220.846 524.64 274.69 530.941C328.533 537.241 383.05 527.119 430.807 501.955L432.078 504.27Z" fill="white"/>
<path d="M179.822 44.8059C228.065 19.3857 283.136 9.16077 337.528 15.5251C391.92 21.8895 442.984 44.5336 483.759 80.3698C524.533 116.206 553.034 163.49 565.373 215.775C577.713 268.06 573.292 322.801 552.713 372.535L550.227 371.548C570.599 322.315 574.975 268.125 562.76 216.367C550.544 164.609 522.331 117.801 481.967 82.3261C441.603 46.851 391.054 24.4351 337.21 18.1348C283.366 11.8346 228.849 21.9565 181.093 47.1206L179.822 44.8059Z" fill="white"/>
<path d="M177.619 0L178.734 39.5637C178.924 46.3167 184.358 51.7441 191.111 51.9268L231.745 53.026L191.111 54.1251C184.358 54.3078 178.924 59.7353 178.734 66.4883L177.619 106.052L176.504 66.4882C176.313 59.7353 170.88 54.3078 164.127 54.1251L123.492 53.026L164.127 51.9268C170.88 51.7441 176.313 46.3166 176.504 39.5637L177.619 0Z" fill="white"/>
<path d="M605.156 350.129L567.761 365.661C561.524 368.251 558.468 375.238 560.798 381.576L574.503 418.844L558.72 382.374C556.036 376.171 548.948 373.078 542.575 375.327L504.362 388.814L541.757 373.282C547.994 370.691 551.051 363.705 548.72 357.366L535.015 320.099L550.798 356.569C553.482 362.771 560.57 365.865 566.943 363.616L605.156 350.129Z" fill="white"/>
<path d="M439.089 547.722L437.272 508.183C436.962 501.435 431.433 496.1 424.677 496.033L384.03 495.626L424.639 493.835C431.387 493.537 436.724 488.018 436.795 481.263L437.208 441.686L439.024 481.225C439.334 487.973 444.864 493.308 451.619 493.375L492.267 493.782L451.658 495.573C444.909 495.871 439.573 501.39 439.502 508.145L439.089 547.722Z" fill="white"/>
<path d="M113.61 169.477L73.357 175.005C66.665 175.924 61.8812 181.91 62.46 188.64L65.8522 228.082L60.2435 188.883C59.2865 182.195 53.2682 177.396 46.5346 177.951L6.03134 181.295L46.2846 175.767C52.9766 174.848 57.7605 168.862 57.1816 162.132L53.7894 122.69L59.3982 161.889C60.3552 168.577 66.3734 173.376 73.107 172.821L113.61 169.477Z" fill="white"/>
</svg>
