<svg width="17" height="18" viewBox="0 0 17 18" fill="none" xmlns="http://www.w3.org/2000/svg">
<path d="M2.64118 15.278H12.5374L12.0647 13.7477C12.1348 13.8088 16.1192 17.2241 16.1192 17.2241V2.28511C16.072 1.35649 15.2725 0.567383 14.2815 0.567383L2.64465 0.569465C1.65427 0.569465 0.850586 1.35996 0.850586 2.28858V13.5596C0.850586 14.5389 1.65288 15.278 2.64118 15.278V15.278ZM9.96181 4.51155L9.93891 4.51988L9.94724 4.51155H9.96181ZM4.66567 5.39228C5.93782 4.46644 7.11698 4.51086 7.11698 4.51086L7.21206 4.60455C5.65535 4.97586 4.94953 5.67128 4.94953 5.67128C5.02171 5.65601 8.16497 3.84251 11.9738 5.71708C11.9738 5.71708 11.2666 5.06678 9.80565 4.65036L9.93474 4.52335C10.1367 4.52405 11.2055 4.56152 12.3493 5.39783C12.3493 5.39783 13.6291 7.58402 13.6291 10.2699C13.5867 10.2186 12.8351 11.4262 10.9008 11.4678C10.9008 11.4678 10.5733 11.0972 10.3401 10.7738C11.4713 10.449 11.8947 9.79937 11.8947 9.79937C9.69253 11.186 7.76243 10.9695 5.45339 10.0326C5.43188 10.0326 5.42216 10.0228 5.41106 10.0117V10.0076C5.39995 9.99717 5.39024 9.98676 5.36872 9.98676H5.32708C5.1855 9.89376 5.09111 9.84795 5.09111 9.84795C5.09111 9.84795 5.51377 10.4976 6.59993 10.8224C6.31468 11.1479 6.03221 11.5178 6.03221 11.5178C4.09865 11.472 3.39351 10.2644 3.39351 10.2644C3.39351 7.57431 4.66567 5.39228 4.66567 5.39228V5.39228Z" fill="black"/>
<path d="M10.0868 9.43075C10.5803 9.43075 10.9821 9.01433 10.9821 8.50075C10.9821 7.99064 10.5823 7.57422 10.0868 7.57422V7.5763C9.59544 7.5763 9.1929 7.99133 9.19151 8.50491C9.19151 9.01433 9.59336 9.43075 10.0868 9.43075Z" fill="black"/>
<path d="M6.88178 9.43075C7.37523 9.43075 7.77708 9.01433 7.77708 8.50075C7.77708 7.99064 7.37801 7.57422 6.88456 7.57422L6.88178 7.5763C6.38832 7.5763 5.98648 7.99133 5.98648 8.50491C5.98648 9.01433 6.38832 9.43075 6.88178 9.43075V9.43075Z" fill="black"/>
</svg>
