<svg width="16" height="16" viewBox="0 0 16 16" fill="none" xmlns="http://www.w3.org/2000/svg">
<g clip-path="url(#clip0_211_286)">
<path d="M15.5817 8.20171C15.5817 3.98494 12.1642 0.567383 7.94741 0.567383C3.73064 0.567383 0.31308 3.98494 0.31308 8.20171C0.31308 12.4185 3.73064 15.836 7.94741 15.836C7.99214 15.836 8.03687 15.836 8.08161 15.8331V9.8926H6.44142V7.98103H8.08161V6.57345C8.08161 4.94221 9.07765 4.05353 10.5329 4.05353C11.2308 4.05353 11.8302 4.10422 12.0031 4.12808V5.83388H11.0011C10.2109 5.83388 10.0558 6.20963 10.0558 6.76133V7.97805H11.9495L11.7019 9.88961H10.0558V15.5408C13.2467 14.6253 15.5817 11.6879 15.5817 8.20171V8.20171Z" fill="black"/>
</g>
<defs>
<clipPath id="clip0_211_286">
<rect width="15.2687" height="15.2687" fill="white" transform="translate(0.31308 0.567383)"/>
</clipPath>
</defs>
</svg>
