<svg width="17" height="16" viewBox="0 0 17 16" fill="none" xmlns="http://www.w3.org/2000/svg">
<path d="M16.0776 5.05642C16.0419 4.24514 15.9107 3.68739 15.7227 3.20409C15.5289 2.69108 15.2306 2.23178 14.8398 1.84997C14.458 1.46221 13.9957 1.1609 13.4886 0.970054C13.0025 0.782118 12.4477 0.650923 11.6364 0.615153C10.819 0.576354 10.5595 0.567383 8.48654 0.567383C6.41352 0.567383 6.15405 0.576354 5.33973 0.612124C4.52845 0.647894 3.9707 0.779205 3.48751 0.967025C2.97439 1.1609 2.51509 1.45918 2.13328 1.84997C1.74552 2.23178 1.44433 2.69411 1.25336 3.20118C1.06543 3.68739 0.934233 4.24211 0.898463 5.05339C0.859664 5.87074 0.850693 6.13021 0.850693 8.20323C0.850693 10.2762 0.859664 10.5357 0.895434 11.35C0.931204 12.1613 1.06251 12.7191 1.25045 13.2024C1.44433 13.7154 1.74552 14.1747 2.13328 14.5565C2.51509 14.9442 2.97742 15.2455 3.48449 15.4364C3.9707 15.6243 4.52542 15.7555 5.33682 15.7913C6.15102 15.8272 6.41061 15.836 8.48362 15.836C10.5566 15.836 10.8161 15.8272 11.6304 15.7913C12.4417 15.7555 12.9995 15.6243 13.4826 15.4364C14.5088 15.0397 15.3201 14.2284 15.7168 13.2024C15.9046 12.7162 16.0359 12.1613 16.0717 11.35C16.1075 10.5357 16.1164 10.2762 16.1164 8.20323C16.1164 6.13021 16.1134 5.87074 16.0776 5.05642ZM14.7027 11.2904C14.6698 12.0361 14.5446 12.4387 14.4402 12.7072C14.1836 13.3724 13.6557 13.9003 12.9905 14.1568C12.722 14.2612 12.3165 14.3865 11.5737 14.4192C10.7683 14.4551 10.5268 14.464 8.48957 14.464C6.45232 14.464 6.20776 14.4551 5.40533 14.4192C4.65964 14.3865 4.25697 14.2612 3.98852 14.1568C3.65751 14.0345 3.3562 13.8406 3.11164 13.5871C2.85811 13.3395 2.66423 13.0412 2.54189 12.7102C2.43749 12.4418 2.31224 12.0361 2.2795 11.2934C2.24361 10.4881 2.23476 10.2464 2.23476 8.20917C2.23476 6.17193 2.24361 5.92736 2.2795 5.12505C2.31224 4.37936 2.43749 3.97669 2.54189 3.70824C2.66423 3.37711 2.85811 3.07592 3.11467 2.83124C3.36215 2.57771 3.66042 2.38383 3.99155 2.26161C4.26 2.15721 4.6657 2.03196 5.40836 1.9991C6.2137 1.96333 6.45535 1.95436 8.49248 1.95436C10.5328 1.95436 10.7743 1.96333 11.5767 1.9991C12.3224 2.03196 12.7251 2.15721 12.9935 2.26161C13.3245 2.38383 13.6258 2.57771 13.8704 2.83124C14.1239 3.07884 14.3178 3.37711 14.4402 3.70824C14.5446 3.97669 14.6698 4.38228 14.7027 5.12505C14.7384 5.93039 14.7474 6.17193 14.7474 8.20917C14.7474 10.2464 14.7384 10.485 14.7027 11.2904Z" fill="black"/>
<path d="M8.4865 4.28076C6.32109 4.28076 4.56418 6.03756 4.56418 8.20308C4.56418 10.3686 6.32109 12.1254 8.4865 12.1254C10.652 12.1254 12.4088 10.3686 12.4088 8.20308C12.4088 6.03756 10.652 4.28076 8.4865 4.28076ZM8.4865 10.7474C7.08169 10.7474 5.94219 9.608 5.94219 8.20308C5.94219 6.79816 7.08169 5.65877 8.4865 5.65877C9.89142 5.65877 11.0308 6.79816 11.0308 8.20308C11.0308 9.608 9.89142 10.7474 8.4865 10.7474V10.7474Z" fill="black"/>
<path d="M13.4795 4.12613C13.4795 4.6318 13.0695 5.04181 12.5637 5.04181C12.0581 5.04181 11.648 4.6318 11.648 4.12613C11.648 3.62034 12.0581 3.21045 12.5637 3.21045C13.0695 3.21045 13.4795 3.62034 13.4795 4.12613V4.12613Z" fill="black"/>
</svg>
