<svg width="18" height="18" viewBox="0 0 18 18" fill="none" xmlns="http://www.w3.org/2000/svg">
<g clip-path="url(#clip0_211_281)">
<path d="M17.0445 3.73107C16.4251 4.00279 15.765 4.18289 15.0769 4.27034C15.7848 3.84767 16.3251 3.18348 16.5791 2.38292C15.9191 2.77644 15.1904 3.0544 14.4138 3.20951C13.7871 2.5422 12.8938 2.12891 11.9194 2.12891C10.0289 2.12891 8.50688 3.66341 8.50688 5.54457C8.50688 5.81525 8.52978 6.07551 8.586 6.32328C5.74707 6.18482 3.23503 4.82417 1.5475 2.75145C1.25288 3.2626 1.08007 3.84767 1.08007 4.4775C1.08007 5.66013 1.68908 6.70846 2.59687 7.31539C2.04824 7.30498 1.51002 7.1457 1.05404 6.89481C1.05404 6.90522 1.05404 6.91875 1.05404 6.93229C1.05404 8.59171 2.23771 9.97006 3.78991 10.2876C3.51195 10.3636 3.209 10.4 2.89461 10.4C2.67599 10.4 2.45529 10.3875 2.24812 10.3417C2.69056 11.694 3.94606 12.6882 5.43892 12.7205C4.27712 13.6293 2.80195 14.1769 1.20499 14.1769C0.924951 14.1769 0.656361 14.1644 0.387772 14.1301C1.90041 15.1055 3.69309 15.6625 5.62631 15.6625C11.9101 15.6625 15.3455 10.4573 15.3455 5.94538C15.3455 5.79442 15.3403 5.64868 15.333 5.50397C16.0107 5.02301 16.5802 4.42233 17.0445 3.73107Z" fill="black"/>
</g>
<defs>
<clipPath id="clip0_211_281">
<rect width="16.6567" height="16.6567" fill="white" transform="translate(0.387772 0.567383)"/>
</clipPath>
</defs>
</svg>
