<svg width="20" height="20" viewBox="0 0 20 20" fill="none" xmlns="http://www.w3.org/2000/svg">
<g clip-path="url(#clip0_211_289)">
<path d="M18.2308 3.95128C18.0208 3.1708 17.4055 2.55556 16.6251 2.3454C15.1995 1.95532 9.4968 1.95532 9.4968 1.95532C9.4968 1.95532 3.79435 1.95532 2.36872 2.33061C1.60336 2.54054 0.97299 3.17091 0.763052 3.95128C0.387878 5.37681 0.387878 8.33317 0.387878 8.33317C0.387878 8.33317 0.387878 11.3044 0.763052 12.7151C0.973212 13.4954 1.58835 14.1107 2.36883 14.3208C3.80937 14.711 9.49702 14.711 9.49702 14.711C9.49702 14.711 15.1995 14.711 16.6251 14.3357C17.4056 14.1257 18.0208 13.5104 18.231 12.7301C18.6061 11.3044 18.6061 8.34818 18.6061 8.34818C18.6061 8.34818 18.6211 5.37681 18.2308 3.95128V3.95128ZM7.6812 11.0644V5.60198L12.4232 8.33317L7.6812 11.0644Z" fill="black"/>
</g>
<defs>
<clipPath id="clip0_211_289">
<rect width="19.4328" height="19.4328" fill="white" transform="translate(0.387878 0.567383)"/>
</clipPath>
</defs>
</svg>
