<svg width="175" height="344" viewBox="0 0 175 344" fill="none" xmlns="http://www.w3.org/2000/svg">
<path d="M0 0H175V307.404L93.3333 344L0 307.404V0Z" fill="#131030"/>
<path d="M49.5705 263.05V268H47.2845V255.742H52.5405C53.0085 255.742 53.4465 255.832 53.8545 256.012C54.2625 256.18 54.6105 256.414 54.8985 256.714C55.1985 257.014 55.4325 257.368 55.6005 257.776C55.7805 258.184 55.8705 258.616 55.8705 259.072V259.612C55.8705 260.068 55.7805 260.5 55.6005 260.908C55.4325 261.304 55.1985 261.658 54.8985 261.97C54.6105 262.27 54.2625 262.504 53.8545 262.672C53.4465 262.84 53.0085 262.924 52.5405 262.924H51.9285L56.0865 268H53.4765L49.5705 263.05ZM49.5705 257.884V260.782H52.1805C52.6965 260.782 53.0745 260.656 53.3145 260.404C53.5545 260.152 53.6745 259.798 53.6745 259.342C53.6745 258.91 53.5545 258.562 53.3145 258.298C53.0745 258.022 52.6965 257.884 52.1805 257.884H49.5705ZM60.8818 265.93H66.9838V268H58.5598V255.742H66.9838V257.812H60.8818V260.836H66.9838V262.888H60.8818V265.93ZM74.9454 265.876C75.2934 265.876 75.5754 265.774 75.7914 265.57C76.0074 265.354 76.1514 265.096 76.2234 264.796V262.762H74.1894V260.836H78.2934V268H76.2234V267.604C75.9834 267.736 75.7194 267.838 75.4314 267.91C75.1554 267.97 74.8734 268 74.5854 268H73.3434C72.8634 268 72.4074 267.91 71.9754 267.73C71.5434 267.538 71.1654 267.28 70.8414 266.956C70.5174 266.632 70.2594 266.254 70.0674 265.822C69.8874 265.39 69.7974 264.928 69.7974 264.436V259.324C69.7974 258.832 69.8874 258.37 70.0674 257.938C70.2594 257.494 70.5174 257.11 70.8414 256.786C71.1654 256.462 71.5434 256.21 71.9754 256.03C72.4074 255.838 72.8634 255.742 73.3434 255.742H74.8914C75.3594 255.742 75.7914 255.826 76.1874 255.994C76.5834 256.162 76.9254 256.396 77.2134 256.696C77.5134 256.984 77.7534 257.326 77.9334 257.722C78.1134 258.118 78.2274 258.544 78.2754 259H76.0614C75.9774 258.688 75.8454 258.424 75.6654 258.208C75.4974 257.992 75.2334 257.884 74.8734 257.884H73.3614C73.1574 257.884 72.9654 257.926 72.7854 258.01C72.6174 258.082 72.4734 258.19 72.3534 258.334C72.2334 258.478 72.1374 258.646 72.0654 258.838C72.0054 259.018 71.9754 259.216 71.9754 259.432V264.31C71.9754 264.526 72.0054 264.73 72.0654 264.922C72.1374 265.102 72.2334 265.264 72.3534 265.408C72.4734 265.552 72.6174 265.666 72.7854 265.75C72.9654 265.834 73.1574 265.876 73.3614 265.876H74.9454ZM81.0577 255.742H83.3437V268H81.0577V255.742ZM91.705 260.404C92.209 260.404 92.677 260.5 93.109 260.692C93.553 260.884 93.931 261.154 94.243 261.502C94.567 261.838 94.813 262.246 94.981 262.726C95.161 263.194 95.251 263.71 95.251 264.274C95.251 264.802 95.167 265.294 94.999 265.75C94.843 266.206 94.615 266.602 94.315 266.938C94.015 267.262 93.661 267.52 93.253 267.712C92.845 267.904 92.389 268 91.885 268H86.305V265.732H91.237C91.477 265.732 91.705 265.702 91.921 265.642C92.149 265.582 92.341 265.492 92.497 265.372C92.653 265.252 92.779 265.102 92.875 264.922C92.971 264.742 93.019 264.526 93.019 264.274C93.019 263.806 92.863 263.44 92.551 263.176C92.251 262.912 91.873 262.78 91.417 262.78H89.959C89.347 262.78 88.789 262.714 88.285 262.582C87.781 262.45 87.355 262.24 87.007 261.952C86.659 261.664 86.389 261.292 86.197 260.836C86.005 260.38 85.909 259.834 85.909 259.198C85.909 258.754 85.987 258.322 86.143 257.902C86.299 257.482 86.515 257.116 86.791 256.804C87.067 256.48 87.403 256.222 87.799 256.03C88.195 255.838 88.633 255.742 89.113 255.742H94.171V258.136H90.049C89.809 258.136 89.587 258.154 89.383 258.19C89.179 258.214 88.999 258.268 88.843 258.352C88.687 258.424 88.567 258.538 88.483 258.694C88.399 258.85 88.357 259.06 88.357 259.324C88.357 259.624 88.459 259.882 88.663 260.098C88.867 260.302 89.143 260.404 89.491 260.404H91.705ZM100.363 258.01H97.2311V255.742H105.727V258.01H102.559V268H100.363V258.01ZM110.333 265.93H116.435V268H108.011V255.742H116.435V257.812H110.333V260.836H116.435V262.888H110.333V265.93ZM121.642 263.05V268H119.356V255.742H124.612C125.08 255.742 125.518 255.832 125.926 256.012C126.334 256.18 126.682 256.414 126.97 256.714C127.27 257.014 127.504 257.368 127.672 257.776C127.852 258.184 127.942 258.616 127.942 259.072V259.612C127.942 260.068 127.852 260.5 127.672 260.908C127.504 261.304 127.27 261.658 126.97 261.97C126.682 262.27 126.334 262.504 125.926 262.672C125.518 262.84 125.08 262.924 124.612 262.924H124L128.158 268H125.548L121.642 263.05ZM121.642 257.884V260.782H124.252C124.768 260.782 125.146 260.656 125.386 260.404C125.626 260.152 125.746 259.798 125.746 259.342C125.746 258.91 125.626 258.562 125.386 258.298C125.146 258.022 124.768 257.884 124.252 257.884H121.642Z" fill="#FAFAFA"/>
</svg>
