<svg width="105" height="209" viewBox="0 0 105 209" fill="none" xmlns="http://www.w3.org/2000/svg">
<path d="M1 -2H104V185.359L55.9736 207.412L1 185.324V-2Z" fill="#131030" stroke="#F9F9F9" stroke-width="2"/>
<path d="M14.5705 163.05V168H12.2845V155.742H17.5405C18.0085 155.742 18.4465 155.832 18.8545 156.012C19.2625 156.18 19.6105 156.414 19.8985 156.714C20.1985 157.014 20.4325 157.368 20.6005 157.776C20.7805 158.184 20.8705 158.616 20.8705 159.072V159.612C20.8705 160.068 20.7805 160.5 20.6005 160.908C20.4325 161.304 20.1985 161.658 19.8985 161.97C19.6105 162.27 19.2625 162.504 18.8545 162.672C18.4465 162.84 18.0085 162.924 17.5405 162.924H16.9285L21.0865 168H18.4765L14.5705 163.05ZM14.5705 157.884V160.782H17.1805C17.6965 160.782 18.0745 160.656 18.3145 160.404C18.5545 160.152 18.6745 159.798 18.6745 159.342C18.6745 158.91 18.5545 158.562 18.3145 158.298C18.0745 158.022 17.6965 157.884 17.1805 157.884H14.5705ZM25.8818 165.93H31.9838V168H23.5598V155.742H31.9838V157.812H25.8818V160.836H31.9838V162.888H25.8818V165.93ZM39.9454 165.876C40.2934 165.876 40.5754 165.774 40.7914 165.57C41.0074 165.354 41.1514 165.096 41.2234 164.796V162.762H39.1894V160.836H43.2934V168H41.2234V167.604C40.9834 167.736 40.7194 167.838 40.4314 167.91C40.1554 167.97 39.8734 168 39.5854 168H38.3434C37.8634 168 37.4074 167.91 36.9754 167.73C36.5434 167.538 36.1654 167.28 35.8414 166.956C35.5174 166.632 35.2594 166.254 35.0674 165.822C34.8874 165.39 34.7974 164.928 34.7974 164.436V159.324C34.7974 158.832 34.8874 158.37 35.0674 157.938C35.2594 157.494 35.5174 157.11 35.8414 156.786C36.1654 156.462 36.5434 156.21 36.9754 156.03C37.4074 155.838 37.8634 155.742 38.3434 155.742H39.8914C40.3594 155.742 40.7914 155.826 41.1874 155.994C41.5834 156.162 41.9254 156.396 42.2134 156.696C42.5134 156.984 42.7534 157.326 42.9334 157.722C43.1134 158.118 43.2274 158.544 43.2754 159H41.0614C40.9774 158.688 40.8454 158.424 40.6654 158.208C40.4974 157.992 40.2334 157.884 39.8734 157.884H38.3614C38.1574 157.884 37.9654 157.926 37.7854 158.01C37.6174 158.082 37.4734 158.19 37.3534 158.334C37.2334 158.478 37.1374 158.646 37.0654 158.838C37.0054 159.018 36.9754 159.216 36.9754 159.432V164.31C36.9754 164.526 37.0054 164.73 37.0654 164.922C37.1374 165.102 37.2334 165.264 37.3534 165.408C37.4734 165.552 37.6174 165.666 37.7854 165.75C37.9654 165.834 38.1574 165.876 38.3614 165.876H39.9454ZM46.0577 155.742H48.3437V168H46.0577V155.742ZM56.705 160.404C57.209 160.404 57.677 160.5 58.109 160.692C58.553 160.884 58.931 161.154 59.243 161.502C59.567 161.838 59.813 162.246 59.981 162.726C60.161 163.194 60.251 163.71 60.251 164.274C60.251 164.802 60.167 165.294 59.999 165.75C59.843 166.206 59.615 166.602 59.315 166.938C59.015 167.262 58.661 167.52 58.253 167.712C57.845 167.904 57.389 168 56.885 168H51.305V165.732H56.237C56.477 165.732 56.705 165.702 56.921 165.642C57.149 165.582 57.341 165.492 57.497 165.372C57.653 165.252 57.779 165.102 57.875 164.922C57.971 164.742 58.019 164.526 58.019 164.274C58.019 163.806 57.863 163.44 57.551 163.176C57.251 162.912 56.873 162.78 56.417 162.78H54.959C54.347 162.78 53.789 162.714 53.285 162.582C52.781 162.45 52.355 162.24 52.007 161.952C51.659 161.664 51.389 161.292 51.197 160.836C51.005 160.38 50.909 159.834 50.909 159.198C50.909 158.754 50.987 158.322 51.143 157.902C51.299 157.482 51.515 157.116 51.791 156.804C52.067 156.48 52.403 156.222 52.799 156.03C53.195 155.838 53.633 155.742 54.113 155.742H59.171V158.136H55.049C54.809 158.136 54.587 158.154 54.383 158.19C54.179 158.214 53.999 158.268 53.843 158.352C53.687 158.424 53.567 158.538 53.483 158.694C53.399 158.85 53.357 159.06 53.357 159.324C53.357 159.624 53.459 159.882 53.663 160.098C53.867 160.302 54.143 160.404 54.491 160.404H56.705ZM65.3631 158.01H62.2311V155.742H70.7271V158.01H67.5591V168H65.3631V158.01ZM75.3326 165.93H81.4346V168H73.0106V155.742H81.4346V157.812H75.3326V160.836H81.4346V162.888H75.3326V165.93ZM86.6422 163.05V168H84.3562V155.742H89.6122C90.0802 155.742 90.5182 155.832 90.9262 156.012C91.3342 156.18 91.6822 156.414 91.9702 156.714C92.2702 157.014 92.5042 157.368 92.6722 157.776C92.8522 158.184 92.9422 158.616 92.9422 159.072V159.612C92.9422 160.068 92.8522 160.5 92.6722 160.908C92.5042 161.304 92.2702 161.658 91.9702 161.97C91.6822 162.27 91.3342 162.504 90.9262 162.672C90.5182 162.84 90.0802 162.924 89.6122 162.924H89.0002L93.1582 168H90.5482L86.6422 163.05ZM86.6422 157.884V160.782H89.2522C89.7682 160.782 90.1462 160.656 90.3862 160.404C90.6262 160.152 90.7462 159.798 90.7462 159.342C90.7462 158.91 90.6262 158.562 90.3862 158.298C90.1462 158.022 89.7682 157.884 89.2522 157.884H86.6422Z" fill="#FAFAFA"/>
</svg>
