<?xml version="1.0" standalone="no"?>
<!DOCTYPE svg PUBLIC "-//W3C//DTD SVG 20010904//EN"
 "http://www.w3.org/TR/2001/REC-SVG-20010904/DTD/svg10.dtd">
<svg version="1.0" xmlns="http://www.w3.org/2000/svg"
 width="948.000000pt" height="948.000000pt" viewBox="0 0 948.000000 948.000000"
 preserveAspectRatio="xMidYMid meet">
<metadata>
Created by potrace 1.14, written by Peter Selinger 2001-2017
</metadata>
<g transform="translate(0.000000,948.000000) scale(0.100000,-0.100000)"
fill="#000000" stroke="none">
<path d="M1557 5162 c-12 -13 -17 -37 -17 -80 l0 -61 -42 -3 -43 -3 0 -50 0
-50 43 -3 42 -3 0 -145 0 -144 55 0 55 0 0 145 0 144 73 3 72 3 3 53 3 52 -75
0 -76 0 0 30 0 29 98 3 97 3 3 48 3 47 -139 0 c-122 0 -141 -2 -155 -18z"/>
<path d="M5530 4900 l0 -280 55 0 54 0 3 143 3 142 123 3 122 3 0 -146 0 -146
58 3 57 3 0 177 c0 157 -2 179 -18 195 -15 15 -42 19 -180 23 l-162 5 -3 78
-3 77 -54 0 -55 0 0 -280z"/>
<path d="M7150 4900 l0 -280 55 0 55 0 0 80 0 80 53 0 54 0 57 -80 58 -80 65
0 c48 0 62 3 57 13 -4 6 -36 54 -71 104 -39 57 -61 98 -57 105 4 7 34 47 66
89 32 42 58 79 58 82 0 4 -28 7 -63 7 l-63 0 -53 -70 -52 -70 -54 0 -55 0 0
150 0 150 -55 0 -55 0 0 -280z"/>
<path d="M3407 5133 c-4 -3 -7 -30 -7 -59 l0 -53 -52 -3 -53 -3 0 -50 0 -50
53 -3 52 -3 0 -125 c0 -169 -5 -164 180 -164 l140 0 0 50 0 49 -102 3 -103 3
-3 93 -3 92 101 0 100 0 0 55 0 55 -100 0 -100 0 0 60 0 60 -48 0 c-27 0 -52
-3 -55 -7z"/>
<path d="M1869 5001 c-23 -19 -24 -24 -27 -200 l-3 -181 60 0 61 0 0 145 0
145 115 0 115 0 0 55 0 55 -149 0 c-132 0 -152 -2 -172 -19z"/>
<path d="M2260 5000 c-18 -18 -20 -33 -20 -183 0 -146 2 -166 18 -180 16 -15
47 -17 224 -17 179 0 207 2 219 17 10 12 15 58 17 172 3 147 2 158 -18 184
l-21 27 -200 0 c-186 0 -200 -1 -219 -20z m350 -185 l0 -95 -130 0 -130 0 0
95 0 95 130 0 130 0 0 -95z"/>
<path d="M2802 4997 c-21 -22 -22 -32 -22 -200 l0 -177 55 0 55 0 0 145 0 145
130 0 130 0 0 -145 0 -145 55 0 55 0 0 180 c0 238 19 220 -240 220 -192 0
-197 0 -218 -23z"/>
<path d="M3789 5001 c-23 -18 -24 -26 -27 -152 -2 -72 -1 -147 3 -165 11 -64
13 -64 261 -64 l224 0 0 45 0 45 -185 0 -185 0 0 24 0 25 171 3 c207 4 199 -2
199 134 0 128 8 124 -241 124 -179 0 -199 -2 -220 -19z m351 -106 l0 -35 -130
0 -130 0 0 35 0 35 130 0 130 0 0 -35z"/>
<path d="M4335 4995 c-25 -24 -25 -27 -25 -200 l0 -176 58 3 57 3 3 143 3 142
114 0 115 0 0 55 0 55 -150 0 c-147 0 -152 -1 -175 -25z"/>
<path d="M4724 5006 c-3 -8 -4 -27 -2 -43 l3 -28 158 -3 157 -3 0 -29 0 -30
-168 0 c-208 0 -202 4 -202 -127 0 -128 -10 -123 236 -123 157 0 204 3 220 14
17 13 19 30 22 175 3 160 3 161 -22 186 -25 25 -26 25 -211 25 -151 0 -187 -3
-191 -14z m316 -261 l0 -35 -130 0 -130 0 0 35 0 35 130 0 130 0 0 -35z"/>
<path d="M6120 4975 l0 -45 155 0 155 0 0 -30 0 -30 -165 0 c-206 0 -205 1
-205 -123 0 -132 -10 -127 239 -127 189 0 209 2 224 18 14 16 17 44 17 180 0
216 16 202 -232 202 l-188 0 0 -45z m310 -230 l0 -35 -130 0 -130 0 0 35 0 35
130 0 130 0 0 -35z"/>
<path d="M6625 4995 c-24 -24 -25 -28 -25 -180 0 -211 -21 -195 260 -195 l220
0 0 50 0 50 -182 2 -183 3 -3 93 -3 92 186 0 185 0 0 55 0 55 -215 0 c-216 0
-216 0 -240 -25z"/>
<path d="M7649 5001 c-20 -16 -24 -30 -27 -92 -3 -64 -1 -78 18 -101 l21 -28
165 0 164 0 0 -35 0 -35 -177 -2 -178 -3 -3 -42 -3 -43 220 0 c238 0 243 1
257 56 12 47 -1 152 -20 173 -18 20 -30 21 -183 21 l-163 0 0 30 0 30 170 0
170 0 0 45 0 45 -204 0 c-185 0 -206 -2 -227 -19z"/>
<path d="M1480 4235 l0 -45 3340 0 3340 0 0 45 0 45 -3340 0 -3340 0 0 -45z"/>
</g>
</svg>
