<svg width="174" height="45" viewBox="0 0 174 45" fill="none" xmlns="http://www.w3.org/2000/svg">
<g clip-path="url(#clip0_1295_278)">
<path d="M45 22.501C45 34.9 34.9 45 22.5 45C10.073 45 0 34.9 0 22.501C0 10.1 10.1 0 22.5 0C34.926 0 45 10.1 45 22.501Z" fill="#E5E2EC"/>
<path d="M32.997 11.8101H16.203C11.015 11.8101 8.23901 16.2041 7.02801 19.5671C5.63701 23.4361 5.38801 30.4861 5.38801 31.9671C5.38801 31.9671 5.38501 32.7681 5.38501 32.7741C5.38501 32.9741 5.58501 33.1741 5.78501 33.1291H8.95501C9.15401 33.1291 9.31101 32.9691 9.31101 32.7741C9.31101 32.7041 9.31101 32.0041 9.31101 32.0041C9.31101 31.0511 9.21101 30.1081 9.66701 28.6721C10.438 26.2271 11.727 24.8441 14.294 24.7461H16.363C16.363 24.7461 16.363 32.7461 16.363 32.7731C16.363 32.9731 16.563 33.1731 16.763 33.1731H20.289C20.483 33.1731 20.643 33.0131 20.643 32.8181C20.643 32.7481 20.645 29.2971 20.645 29.2971C20.645 28.9401 20.692 28.5881 20.808 28.2771C21.141 27.2341 21.918 26.1911 23.195 26.1911C24.785 26.1911 25.395 27.4911 25.395 29.3181C25.395 29.3181 25.392 32.7851 25.392 32.8181C25.392 33.0181 25.592 33.2181 25.792 33.2181H29.473C29.67 33.2181 29.83 33.0621 29.83 32.8631C29.83 32.8571 29.83 29.1501 29.83 29.1501C29.83 28.7961 29.901 28.4181 29.994 28.1111C30.374 27.1151 31 26.2361 32.211 26.2361C33.869 26.2361 34.511 27.5361 34.511 29.7691C34.511 29.7691 34.511 32.8691 34.511 32.8631C34.511 33.0631 34.711 33.2631 34.911 33.2181H38.837C39.034 33.2181 39.201 33.0581 39.201 32.8631C39.201 32.8571 39.203 17.3791 39.203 17.3791C38.95 14.2001 36 11.8001 33 11.8101H32.997ZM16.479 20.1511H15.541C14.562 20.1511 13.94 19.6121 13.94 18.8021C13.94 17.8851 14.606 17.4881 15.573 17.4881C16.015 17.4881 16.373 17.4881 16.473 17.5721V20.1511H16.479Z" fill="#272B3F"/>
<path d="M52.2271 11.9051C53.6991 11.6231 55.8291 11.4351 58.0531 11.4351C61.0911 11.4351 63.1531 11.9351 64.5531 13.1261C65.7121 14.1261 66.3531 15.5261 66.3531 17.4261C66.3531 20.1511 64.5051 21.9991 62.5001 22.6881V22.7821C64.0351 23.3821 64.9001 24.7821 65.4001 26.8541C66.0891 29.4541 66.7001 31.9541 67.1001 32.7421H63.1541C62.8411 32.1161 62.3081 30.3931 61.7451 27.7631C61.1191 25.0071 60.1471 24.1301 57.9551 24.0671H56.0141V32.7431H52.1931V11.9051H52.2271ZM56.0481 21.2081H58.3341C60.9341 21.2081 62.5311 19.8301 62.5311 17.7311C62.5311 15.4441 60.9341 14.3481 58.4281 14.3481C57.2071 14.3481 56.4241 14.4421 56.0481 14.5361V21.2081Z" fill="#E4E2EC"/>
<path d="M74.996 33.046C70.705 33.046 67.354 30.102 67.354 25.185C67.354 20.174 70.643 17.104 75.247 17.104C79.789 17.104 82.847 20.304 82.847 24.904C82.847 30.509 78.901 33.015 75.049 33.015H74.996V33.046ZM75.121 30.259C77.313 30.259 78.848 28.128 78.848 25.029C78.848 22.648 77.783 19.892 75.152 19.892C72.427 19.892 71.331 22.554 71.331 25.091C71.331 27.991 72.831 30.291 75.131 30.259H75.121Z" fill="#E4E2EC"/>
<path d="M84.5802 29.131C85.4262 29.631 87.0802 30.231 88.4802 30.259C90.1712 30.259 90.9232 29.538 90.9232 28.536C90.9232 27.502 90.2962 27.001 88.4172 26.311C85.4422 25.309 84.2202 23.68 84.2202 21.864C84.2202 19.17 86.4442 17.103 89.9832 17.103C91.6742 17.103 93.1832 17.503 94.0832 18.011L93.3002 20.711C92.6742 20.336 91.4212 19.834 90.0742 19.834C88.6962 19.834 87.9442 20.523 87.9442 21.463C87.9442 22.463 88.6442 22.863 90.6442 23.563C93.4322 24.563 94.6442 25.963 94.7442 28.199C94.7442 30.986 92.5842 32.991 88.5432 32.991C86.6952 32.991 85.0352 32.552 83.9082 31.927L84.5802 29.131Z" fill="#E4E2EC"/>
<path d="M99.5812 26.156C99.6752 28.956 101.881 30.056 104.281 30.102C106.066 30.102 107.318 29.82 108.509 29.414L109.072 32.014C107.758 32.577 105.941 32.985 103.748 32.985C98.8002 32.985 95.8872 29.947 95.8872 25.28C95.8872 21.052 98.4552 17.074 103.342 17.074C108.289 17.074 109.942 21.174 109.942 24.496C109.942 25.217 109.88 25.781 109.817 26.125H99.5812V26.156ZM106.283 23.462C106.314 22.053 105.688 19.735 103.12 19.735C100.74 19.735 99.7372 21.896 99.5812 23.462H106.283Z" fill="#E4E2EC"/>
<path d="M111.764 21.99C111.764 20.236 111.702 18.764 111.639 17.449H114.991L115.179 19.735H115.273C115.962 18.545 117.623 17.104 120.16 17.104C122.822 17.104 125.56 18.804 125.56 23.649V32.701H121.708V24.089C121.708 21.896 120.894 20.236 118.794 20.236C117.26 20.236 116.195 21.332 115.788 22.536C115.663 22.848 115.6 23.319 115.6 23.757V32.746H111.746V21.99H111.764Z" fill="#E4E2EC"/>
<path d="M129.178 32.7021V20.3311H127.111V17.4501H129.178V16.7921C129.178 14.8191 129.71 12.8461 131.026 11.5931C132.153 10.5281 133.688 10.1211 135.004 10.1211C136.038 10.1211 136.804 10.3211 137.404 10.4971L137.154 13.4721C136.716 13.3161 136.215 13.1901 135.494 13.1901C133.584 13.1901 132.957 14.7871 132.957 16.6671V17.4501H136.309V20.3311H132.989V32.7021H129.178Z" fill="#E4E2EC"/>
<path d="M140.828 26.156C140.922 28.956 143.128 30.056 145.528 30.102C147.313 30.102 148.567 29.82 149.757 29.414L150.321 32.014C149.005 32.577 147.188 32.985 144.997 32.985C140.048 32.985 137.136 29.947 137.136 25.28C137.136 21.052 139.704 17.074 144.589 17.074C149.538 17.074 151.189 21.174 151.189 24.496C151.189 25.217 151.127 25.781 151.063 26.125H140.828V26.156ZM147.53 23.462C147.561 22.053 146.935 19.735 144.367 19.735C141.986 19.735 140.984 21.896 140.828 23.462H147.53Z" fill="#E4E2EC"/>
<path d="M153.011 10.4341H156.864V32.7021H153.011V10.4341Z" fill="#E4E2EC"/>
<path d="M173.869 10.4341V28.4111C173.869 30.0111 173.969 31.7111 173.969 32.7021H170.555L170.367 30.2911H170.304C169.396 31.9821 167.548 33.0471 165.357 33.0911C161.692 33.0911 158.81 29.9891 158.81 25.2921C158.779 20.1871 161.974 17.1491 165.638 17.1491C167.737 17.1491 169.238 17.9491 169.938 19.1221H170V10.4781H173.869V10.4341ZM170.018 23.8071C170.018 23.4941 169.987 23.0861 169.924 22.7731C169.579 21.3011 168.358 20.0801 166.604 20.0801C164.129 20.0801 162.752 22.2721 162.752 25.0801C162.752 27.8801 164.152 29.9801 166.552 29.9341C168.118 29.9341 169.496 28.8701 169.872 27.2091C169.966 26.8651 169.997 26.4891 169.997 26.0821V23.8071H170.018Z" fill="#E4E2EC"/>
</g>
<defs>
<clipPath id="clip0_1295_278">
<rect width="173.995" height="45" fill="white"/>
</clipPath>
</defs>
</svg>
